# xmcd
#
# Track frame offsets:
#	150
#	12912
#	29235
#	40740
#	54710
#	68122
#	79267
#	96675
#	107922
#	125507
#	141372
#
# Disc length: 2073 seconds
#
# Revision: 7
# Processed by: cddbd v1.5.2PL0 Copyright (c) Steve Scherf et al.
# Submitted via: audiograbber 1.83.01
#
DISCID=a508170b
DTITLE=George Jones - The Bradley Barn Sessions
DYEAR=1994
DGENRE=Country
TTITLE0=One Woman Man ( with Marty Stuart )
TTITLE1=A Good Year For The Roses ( with Alan Jackson )
TTITLE2=Why Baby Why ( Ricky Skaggs )
TTITLE3=Golden Ring ( with Tammy Wynette )
TTITLE4=Say Its Not You ( with Keith Richard )
TTITLE5=The Love Bug ( with Vince Gill ) 
TTITLE6=Where Grass Won't Grow ( with E.Harris, D. Parton and T.Yearwood )
TTITLE7=The Race Is On ( with Travis Tritt )
TTITLE8=Bartender Blues ( with Trisha Yearwood )
TTITLE9=White Lightnin' ( with Mark Knopfler )
TTITLE10=Good Ones And Bad Ones ( with Mark Chesnutt )
EXTD=
EXTT0=
EXTT1=
EXTT2=
EXTT3=
EXTT4=
EXTT5=
EXTT6=
EXTT7=
EXTT8=
EXTT9=
EXTT10=
PLAYORDER=
